Cinzel-Regular.ufo
<glyph name="comma" format="1">
  <advance width="185"/>
  <unicode hex="002C"/>
  <outline>
    <contour>
      <point x="44.5944" y="39.9181"/>
      <point x="65.055" y="22.9727"/>
      <point x="77.6672" y="7.87987" type="curve" smooth="yes"/>
      <point x="94.2224" y="-12"/>
      <point x="103.855" y="-62"/>
      <point x="45" y="-81" type="curve"/>
      <point x="47.3612" y="-89" type="line"/>
      <point x="110.621" y="-87"/>
      <point x="162.727" y="-20"/>
      <point x="131.273" y="55.4252" type="curve" smooth="yes"/>
      <point x="114.901" y="94.564"/>
      <point x="67.7736" y="92.5709"/>
      <point x="55.4381" y="64.5501" type="curve" smooth="yes"/>
    </contour>
  </outline>
</glyph>
<glyph name="one" format="1">
  <advance width="344"/>
  <unicode hex="0031"/>
  <outline>
    <contour>
      <point x="67.4891" y="0" type="line"/>
      <point x="67.6281" y="9.99995" type="line"/>
      <point x="88.5331" y="9.97896" type="line" smooth="yes"/>
      <point x="118.677" y="9.94869"/>
      <point x="143.75" y="34.1079"/>
      <point x="143.75" y="64.102" type="curve" smooth="yes"/>
      <point x="143.75" y="591" type="line"/>
      <point x="143.75" y="623.2"/>
      <point x="127.864" y="640"/>
      <point x="97.7322" y="640" type="curve"/>
      <point x="60" y="640" type="line"/>
      <point x="60" y="650" type="line"/>
      <point x="112.008" y="657.022"/>
      <point x="158.816" y="667.649"/>
      <point x="197.797" y="714" type="curve"/>
      <point x="207.797" y="714" type="line"/>
      <point x="207.797" y="63.45" type="line" smooth="yes"/>
      <point x="207.797" y="33.75"/>
      <point x="233.072" y="9.94906"/>
      <point x="262.997" y="9.97905" type="curve" smooth="yes"/>
      <point x="283.902" y="10" type="line"/>
      <point x="284.041" y="0" type="line"/>
    </contour>
  </outline>
</glyph>
<glyph name="A" format="1">
  <advance width="712"/>
  <unicode hex="0041"/>
  <outline>
    <contour>
      <point x="339.4" y="619" type="line"/>
      <point x="569.573" y="6.09493" type="line"/>
      <point x="654.633" y="6.09493" type="line"/>
      <point x="359.414" y="714" type="line"/>
    </contour>
    <contour>
      <point x="86.6599" y="73.0126" type="line"/>
      <point x="66.4484" y="28.4642"/>
      <point x="29.4381" y="10"/>
      <point x="-1" y="10" type="curve" smooth="yes"/>
      <point x="-1" y="10"/>
      <point x="-10" y="10"/>
      <point x="-10" y="10" type="curve"/>
      <point x="-10" y="0" type="line"/>
      <point x="191.278" y="0" type="line"/>
      <point x="191.278" y="9.90791" type="line"/>
      <point x="182.486" y="9.90791" type="line" smooth="yes"/>
      <point x="156.669" y="9.90791"/>
      <point x="129.884" y="32.6635"/>
      <point x="144.486" y="72.6814" type="curve"/>
    </contour>
    <contour>
      <point x="350.408" y="714" type="line"/>
      <point x="350.408" y="692.013"/>
      <point x="313.382" y="611"/>
      <point x="313.382" y="611" type="curve"/>
      <point x="57.1902" y="3.09493" type="line"/>
      <point x="117.233" y="3.09493" type="line"/>
      <point x="368.42" y="644" type="line"/>
      <point x="359.414" y="714" type="line"/>
    </contour>
    <contour>
      <point x="187.293" y="273" type="line"/>
      <point x="187.293" y="243" type="line"/>
      <point x="499.513" y="243" type="line"/>
      <point x="499.513" y="273" type="line"/>
    </contour>
    <contour>
      <point x="559.169" y="32.6639"/>
      <point x="532.384" y="9.91053"/>
      <point x="506.568" y="9.91053" type="curve" smooth="yes"/>
      <point x="497.776" y="9.91053" type="line"/>
      <point x="497.776" y="0" type="line"/>
      <point x="722.956" y="0" type="line"/>
      <point x="722.956" y="10" type="line"/>
      <point x="722.956" y="10"/>
      <point x="714.593" y="10"/>
      <point x="714.593" y="10" type="curve" smooth="yes"/>
      <point x="683.946" y="10"/>
      <point x="646.936" y="28.4639"/>
      <point x="626.724" y="73.0129" type="curve"/>
      <point x="544.567" y="72.6809" type="line"/>
    </contour>
    <contour>
      <point x="535.72" y="10" type="move" name="ogonek"/>
    </contour>
    <contour>
      <point x="356.664" y="764" type="move" name="top"/>
    </contour>
  </outline>
</glyph>
<glyph name="J" format="1">
  <advance width="324"/>
  <unicode hex="004A"/>
  <outline>
    <contour>
      <point x="136.961" y="699.742" type="line"/>
      <point x="136.961" y="2.92332" type="line" smooth="yes"/>
      <point x="136.961" y="-83"/>
      <point x="85.4982" y="-168"/>
      <point x="20" y="-191" type="curve"/>
      <point x="20" y="-200" type="line"/>
      <point x="122.011" y="-200"/>
      <point x="202.163" y="-112"/>
      <point x="202.163" y="0.0989685" type="curve" smooth="yes"/>
      <point x="202.163" y="700" type="line"/>
    </contour>
    <contour>
      <point x="139.86" y="700.06" type="line"/>
      <point x="60.085" y="700.06" type="line"/>
      <point x="60.2471" y="690.06" type="line"/>
      <point x="60.404" y="690.06"/>
      <point x="72.745" y="690.08"/>
      <point x="72.897" y="690.08" type="curve" smooth="yes"/>
      <point x="107.898" y="690.08"/>
      <point x="136.295" y="662.03"/>
      <point x="136.951" y="627.196" type="curve"/>
      <point x="139.86" y="627.196" type="line"/>
    </contour>
    <contour>
      <point x="202.158" y="627.196" type="line"/>
      <point x="202.814" y="662.03"/>
      <point x="231.211" y="690.08"/>
      <point x="266.212" y="690.08" type="curve" smooth="yes"/>
      <point x="266.364" y="690.08"/>
      <point x="278.705" y="690.06"/>
      <point x="278.862" y="690.06" type="curve"/>
      <point x="279.024" y="700.06" type="line"/>
      <point x="199.249" y="700.06" type="line"/>
      <point x="199.249" y="627.196" type="line"/>
    </contour>
    <contour>
      <point x="171" y="700" type="move" name="top"/>
    </contour>
  </outline>
</glyph>
<glyph name="L" format="1">
  <advance width="562"/>
  <unicode hex="004C"/>
  <outline>
    <contour>
      <point x="136.885" y="700" type="line"/>
      <point x="136.885" y="0" type="line"/>
      <point x="201.915" y="0" type="line"/>
      <point x="201.915" y="700" type="line"/>
    </contour>
    <contour>
      <point x="199.096" y="30.5885" type="line"/>
      <point x="199.096" y="0" type="line"/>
      <point x="471.86" y="0" type="line"/>
      <point x="471.86" y="30.5885" type="line"/>
    </contour>
    <contour>
      <point x="522.86" y="161.543" type="line"/>
      <point x="491.991" y="85.405"/>
      <point x="451.298" y="30.592"/>
      <point x="345.335" y="30.592" type="curve"/>
      <point x="309.031" y="0" type="line"/>
      <point x="474.572" y="0" type="line"/>
      <point x="532.86" y="161.543" type="line"/>
    </contour>
    <contour>
      <point x="136.88" y="72.864" type="line"/>
      <point x="136.225" y="38.029"/>
      <point x="107.828" y="9.979"/>
      <point x="72.8263" y="9.979" type="curve" smooth="yes"/>
      <point x="72.6743" y="9.979"/>
      <point x="60.3333" y="10"/>
      <point x="60.1763" y="10" type="curve"/>
      <point x="60.0153" y="0" type="line"/>
      <point x="139.79" y="0" type="line"/>
      <point x="139.79" y="72.864" type="line"/>
    </contour>
    <contour>
      <point x="139.775" y="699.941" type="line"/>
      <point x="60" y="699.941" type="line"/>
      <point x="60.162" y="689.941" type="line"/>
      <point x="60.319" y="689.941"/>
      <point x="72.66" y="689.961"/>
      <point x="72.812" y="689.961" type="curve" smooth="yes"/>
      <point x="107.813" y="689.961"/>
      <point x="136.21" y="661.911"/>
      <point x="136.866" y="627.077" type="curve"/>
      <point x="139.775" y="627.077" type="line"/>
    </contour>
    <contour>
      <point x="201.915" y="627.077" type="line"/>
      <point x="202.571" y="661.911"/>
      <point x="230.968" y="689.961"/>
      <point x="265.969" y="689.961" type="curve" smooth="yes"/>
      <point x="266.121" y="689.961"/>
      <point x="278.462" y="689.941"/>
      <point x="278.619" y="689.941" type="curve"/>
      <point x="278.781" y="699.941" type="line"/>
      <point x="199.006" y="699.941" type="line"/>
      <point x="199.006" y="627.077" type="line"/>
    </contour>
    <contour>
      <point x="169.562" y="764" type="move" name="top"/>
    </contour>
    <contour>
      <point x="307.331" y="-50" type="move" name="bottom"/>
    </contour>
  </outline>
</glyph>
<glyph name="M" format="1">
  <advance width="931"/>
  <unicode hex="004D"/>
  <outline>
    <contour>
      <point x="439.898" y="48.9496" type="line"/>
      <point x="454.15" y="-14" type="line"/>
      <point x="463.569" y="-14" type="line"/>
      <point x="470.023" y="27.3871"/>
      <point x="497.886" y="88.1095"/>
      <point x="497.886" y="88.1095" type="curve"/>
      <point x="749.227" y="646.912" type="line"/>
      <point x="740.602" y="713.697" type="line"/>
    </contour>
    <contour>
      <point x="104.211" y="72.6447" type="line"/>
      <point x="99.0816" y="33.1129"/>
      <point x="67.0777" y="9.99072"/>
      <point x="31.3277" y="9.99072" type="curve" smooth="yes"/>
      <point x="31.216" y="9.99072"/>
      <point x="15.5259" y="10"/>
      <point x="15.4144" y="10" type="curve"/>
      <point x="15.4144" y="0" type="line"/>
      <point x="125.623" y="0" type="line"/>
      <point x="125.623" y="72.6447" type="line"/>
    </contour>
    <contour>
      <point x="147.697" y="56.525" type="line"/>
      <point x="147.697" y="0" type="line"/>
      <point x="209.081" y="0" type="line"/>
      <point x="209.081" y="9.44452" type="line"/>
      <point x="193.5" y="9.44452" type="line" smooth="yes"/>
      <point x="171.956" y="9.49044"/>
      <point x="154.511" y="30.59"/>
      <point x="154.511" y="52.1452" type="curve" smooth="yes"/>
      <point x="154.511" y="53.6257"/>
      <point x="154.609" y="55.0855"/>
      <point x="154.771" y="56.525" type="curve"/>
    </contour>
    <contour>
      <point x="95.6975" y="0" type="line"/>
      <point x="149.672" y="0" type="line"/>
      <point x="208.663" y="654.713" type="line"/>
      <point x="188.71" y="714" type="line"/>
      <point x="179.433" y="714" type="line"/>
    </contour>
    <contour>
      <point x="170.355" y="601.692" type="line"/>
      <point x="454.153" y="-14" type="line"/>
      <point x="477.016" y="90.6424" type="line"/>
      <point x="188.71" y="714" type="line"/>
    </contour>
    <contour>
      <point x="740.602" y="713.697" type="line"/>
      <point x="703.487" y="605.769" type="line"/>
      <point x="758.232" y="0" type="line"/>
      <point x="836.177" y="0" type="line"/>
      <point x="749.744" y="713.697" type="line"/>
    </contour>
    <contour>
      <point x="805.971" y="0" type="line"/>
      <point x="916.18" y="0" type="line"/>
      <point x="916.18" y="10" type="line"/>
      <point x="916.068" y="10"/>
      <point x="900.378" y="9.991"/>
      <point x="900.266" y="9.991" type="curve" smooth="yes"/>
      <point x="864.516" y="9.991"/>
      <point x="832.512" y="33.113"/>
      <point x="827.383" y="72.645" type="curve"/>
      <point x="805.971" y="72.645" type="line"/>
    </contour>
    <contour>
      <point x="753.275" y="55.085"/>
      <point x="753.372" y="53.626"/>
      <point x="753.372" y="52.145" type="curve" smooth="yes"/>
      <point x="753.372" y="30.59"/>
      <point x="735.927" y="9.49"/>
      <point x="714.384" y="9.445" type="curve" smooth="yes"/>
      <point x="698.802" y="9.445" type="line"/>
      <point x="698.802" y="0" type="line"/>
      <point x="760.187" y="0" type="line"/>
      <point x="760.187" y="56.525" type="line"/>
      <point x="753.112" y="56.525" type="line"/>
    </contour>
  </outline>
</glyph>
<glyph name="N" format="1">
  <advance width="841"/>
  <unicode hex="004E"/>
  <outline>
    <contour>
      <point x="135.288" y="604.837" type="line"/>
      <point x="716.022" y="-14" type="line"/>
      <point x="706.873" y="94.8078" type="line"/>
      <point x="125.9" y="714.952" type="line"/>
    </contour>
    <contour>
      <point x="125.346" y="70.5895" type="line"/>
      <point x="124.715" y="37.0167"/>
      <point x="97.3473" y="9.98059"/>
      <point x="63.6127" y="9.98059" type="curve" smooth="yes"/>
      <point x="63.4603" y="9.98059"/>
      <point x="45.3048" y="9.99364"/>
      <point x="45.1547" y="10" type="curve"/>
      <point x="45" y="0" type="line"/>
      <point x="128.152" y="0" type="line"/>
      <point x="128.152" y="70.5895" type="line"/>
    </contour>
    <contour>
      <point x="167.835" y="70.5895" type="line"/>
      <point x="167.835" y="0" type="line"/>
      <point x="250.987" y="0" type="line"/>
      <point x="250.833" y="10" type="line"/>
      <point x="250.68" y="9.99364"/>
      <point x="232.523" y="9.98059"/>
      <point x="232.372" y="9.98059" type="curve" smooth="yes"/>
      <point x="198.64" y="9.98059"/>
      <point x="171.273" y="37.0167"/>
      <point x="170.637" y="70.5895" type="curve"/>
    </contour>
    <contour>
      <point x="116.136" y="714.991" type="line"/>
      <point x="116.136" y="714.991"/>
      <point x="125.345" y="658.335"/>
      <point x="125.345" y="590.069" type="curve" smooth="yes"/>
      <point x="125.345" y="0" type="line"/>
      <point x="170.732" y="0" type="line"/>
      <point x="170.02" y="658.772" type="line"/>
      <point x="125.997" y="715" type="line"/>
    </contour>
    <contour>
      <point x="670.596" y="700.019" type="line"/>
      <point x="670.641" y="39.152" type="line"/>
      <point x="716.022" y="-14" type="line"/>
      <point x="725.104" y="-14" type="line" smooth="yes"/>
      <point x="725.104" y="-14"/>
      <point x="715.983" y="49.1505"/>
      <point x="715.983" y="113.582" type="curve" smooth="yes"/>
      <point x="715.983" y="700.019" type="line"/>
    </contour>
    <contour>
      <point x="713.158" y="700.019" type="line"/>
      <point x="713.154" y="629.432" type="line"/>
      <point x="715.962" y="629.432" type="line"/>
      <point x="716.593" y="663.007"/>
      <point x="743.96" y="690.043"/>
      <point x="777.696" y="690.039" type="curve" smooth="yes"/>
      <point x="777.846" y="690.042"/>
      <point x="796.002" y="690.027"/>
      <point x="796.152" y="690.02" type="curve"/>
      <point x="796.306" y="700.019" type="line"/>
    </contour>
    <contour>
      <point x="590.387" y="690.019" type="line"/>
      <point x="590.536" y="690.025"/>
      <point x="608.693" y="690.041"/>
      <point x="608.841" y="690.038" type="curve" smooth="yes"/>
      <point x="642.579" y="690.042"/>
      <point x="669.944" y="663.005"/>
      <point x="670.575" y="629.431" type="curve"/>
      <point x="673.385" y="629.431" type="line"/>
      <point x="673.379" y="700.019" type="line"/>
      <point x="590.233" y="700.019" type="line"/>
    </contour>
    <contour>
      <point x="425.897" y="764" type="move" name="top"/>
    </contour>
    <contour>
      <point x="425.897" y="-64" type="move" name="bottom"/>
    </contour>
  </outline>
</glyph>
<glyph name="W" format="1">
  <advance width="982"/>
  <unicode hex="0057"/>
  <outline>
    <contour>
      <point x="312.596" y="-12" type="line"/>
      <point x="329.644" y="96.962" type="line"/>
      <point x="144.099" y="693.934" type="line"/>
      <point x="62.6616" y="693.96" type="line"/>
    </contour>
    <contour>
      <point x="501.869" y="715.642" type="line"/>
      <point x="294.518" y="76.7841" type="line"/>
      <point x="312.596" y="-12" type="line"/>
      <point x="322.032" y="-12" type="line"/>
      <point x="323.678" y="37.1491"/>
      <point x="342.993" y="99.1555"/>
      <point x="342.993" y="99.1555" type="curve"/>
      <point x="519.16" y="634.818" type="line"/>
      <point x="510.991" y="715.642" type="line"/>
    </contour>
    <contour>
      <point x="477.49" y="607.38" type="line"/>
      <point x="698.988" y="-12" type="line"/>
      <point x="721.446" y="125.554" type="line"/>
      <point x="511.182" y="715.321" type="line"/>
    </contour>
    <contour>
      <point x="860.549" y="694.217" type="line"/>
      <point x="686.885" y="86.9333" type="line"/>
      <point x="698.988" y="-12" type="line"/>
      <point x="708.424" y="-12" type="line"/>
      <point x="709.955" y="35.6244"/>
      <point x="730.285" y="99.1555"/>
      <point x="730.285" y="99.1555" type="curve"/>
      <point x="916.59" y="694.217" type="line"/>
    </contour>
    <contour>
      <point x="895.685" y="627.5" type="line"/>
      <point x="910.896" y="672.049"/>
      <point x="952.974" y="690"/>
      <point x="983.621" y="690" type="curve" smooth="yes"/>
      <point x="983.621" y="690"/>
      <point x="992.412" y="690"/>
      <point x="992.412" y="690" type="curve"/>
      <point x="992.412" y="700" type="line"/>
      <point x="794.803" y="700" type="line"/>
      <point x="794.803" y="690.093" type="line"/>
      <point x="803.595" y="690.093" type="line" smooth="yes"/>
      <point x="831.412" y="690.093"/>
      <point x="853.197" y="667.849"/>
      <point x="841.595" y="627.831" type="curve"/>
    </contour>
    <contour>
      <point x="152.138" y="667.528"/>
      <point x="177.626" y="690.086"/>
      <point x="203.442" y="690.086" type="curve" smooth="yes"/>
      <point x="212.234" y="690.086" type="line"/>
      <point x="212.234" y="700" type="line"/>
      <point x="-10" y="700" type="line"/>
      <point x="-10" y="690" type="line"/>
      <point x="-10" y="690"/>
      <point x="-2" y="690"/>
      <point x="-2" y="690" type="curve" smooth="yes"/>
      <point x="28.994" y="690"/>
      <point x="70.004" y="672.059"/>
      <point x="86.216" y="627.51" type="curve"/>
      <point x="164.74" y="627.51" type="line"/>
    </contour>
    <contour>
      <point x="506.871" y="764" type="move" name="top"/>
    </contour>
  </outline>
</glyph>
<glyph name="Z" format="1">
  <advance width="651"/>
  <unicode hex="005A"/>
  <outline>
    <contour>
      <point x="567.791" y="707.817"/>
      <point x="513.843" y="701.098"/>
      <point x="473.627" y="701.098" type="curve"/>
      <point x="74.3479" y="700.737" type="line"/>
      <point x="74.3479" y="670.856" type="line"/>
      <point x="480.247" y="670.855" type="line"/>
      <point x="60.1839" y="9.32178" type="line"/>
      <point x="60" y="0" type="line"/>
      <point x="133.584" y="0" type="line"/>
      <point x="579.594" y="705.328" type="line"/>
      <point x="579.594" y="705.33"/>
      <point x="579.594" y="714"/>
      <point x="579.594" y="714" type="curve"/>
    </contour>
    <contour>
      <point x="123.887" y="29.7335" type="line"/>
      <point x="123.887" y="0" type="line"/>
      <point x="581.193" y="0" type="line"/>
      <point x="587.324" y="29.7335" type="line"/>
    </contour>
    <contour>
      <point x="606.845" y="154.443" type="line"/>
      <point x="587.84" y="84.5739"/>
      <point x="544.654" y="29.7327"/>
      <point x="470.05" y="29.7327" type="curve"/>
      <point x="459.2" y="25.1147" type="line"/>
      <point x="452.116" y="0" type="line"/>
      <point x="583.689" y="0" type="line"/>
      <point x="616.845" y="154.443" type="line"/>
    </contour>
    <contour>
      <point x="142.876" y="673.565" type="line"/>
      <point x="74.3009" y="673.565" type="line"/>
      <point x="74.3009" y="593.264" type="line"/>
      <point x="84.3659" y="593.414" type="line"/>
      <point x="84.3469" y="611.238" type="line" smooth="yes"/>
      <point x="84.3469" y="643.815"/>
      <point x="110.452" y="670.247"/>
      <point x="142.876" y="670.857" type="curve"/>
    </contour>
    <contour>
      <point x="74.3009" y="689.918" type="line"/>
      <point x="196.232" y="700.996" type="line"/>
      <point x="152.872" y="700.996"/>
      <point x="93.2499" y="711.21"/>
      <point x="74.3009" y="719.196" type="curve"/>
    </contour>
    <contour>
      <point x="324" y="764" type="move" name="top"/>
    </contour>
  </outline>
</glyph>
<glyph name="a" format="1">
  <advance width="663"/>
  <unicode hex="0061"/>
  <outline>
    <contour>
      <point x="319.075" y="525" type="line"/>
      <point x="532.104" y="6.09493" type="line"/>
      <point x="611.41" y="6.09493" type="line"/>
      <point x="336.339" y="614" type="line"/>
    </contour>
    <contour>
      <point x="83.8603" y="73.0126" type="line"/>
      <point x="63.4584" y="28.4642"/>
      <point x="30.6578" y="10"/>
      <point x="2.93142" y="10" type="curve" smooth="yes"/>
      <point x="2.93142" y="10"/>
      <point x="-5" y="10"/>
      <point x="-5" y="10" type="curve"/>
      <point x="-5" y="0" type="line"/>
      <point x="185.542" y="0" type="line"/>
      <point x="185.542" y="9.90791" type="line"/>
      <point x="177.594" y="9.90791" type="line" smooth="yes"/>
      <point x="154.253" y="9.90791"/>
      <point x="127.967" y="32.6635"/>
      <point x="143.248" y="72.6814" type="curve"/>
    </contour>
    <contour>
      <point x="326.859" y="614" type="line"/>
      <point x="324.802" y="587.84"/>
      <point x="288.086" y="511"/>
      <point x="288.372" y="511" type="curve"/>
      <point x="51.1332" y="3.09493" type="line"/>
      <point x="113.824" y="3.09493" type="line"/>
      <point x="342.809" y="545" type="line"/>
      <point x="336.339" y="614" type="line"/>
    </contour>
    <contour>
      <point x="189.253" y="233" type="line"/>
      <point x="189.253" y="203" type="line"/>
      <point x="454.01" y="203" type="line"/>
      <point x="454.01" y="233" type="line"/>
    </contour>
    <contour>
      <point x="520.207" y="32.6639"/>
      <point x="493.891" y="9.91033"/>
      <point x="470.552" y="9.91033" type="curve" smooth="yes"/>
      <point x="462.602" y="9.91033" type="line"/>
      <point x="462.602" y="0" type="line"/>
      <point x="668.018" y="0" type="line"/>
      <point x="668.018" y="9.9998" type="line"/>
      <point x="668.018" y="9.9998"/>
      <point x="660.458" y="9.9998"/>
      <point x="660.458" y="9.9998" type="curve" smooth="yes"/>
      <point x="632.751" y="9.9998"/>
      <point x="601.397" y="28.4639"/>
      <point x="581.018" y="73.0129" type="curve"/>
      <point x="504.901" y="72.6809" type="line"/>
    </contour>
    <contour>
      <point x="460.38" y="10.3333" type="move" name="ogonek"/>
    </contour>
    <contour>
      <point x="332.127" y="664" type="move" name="top"/>
    </contour>
  </outline>
</glyph>
<glyph name="c" format="1">
  <advance width="705"/>
  <unicode hex="0063"/>
  <outline>
    <contour>
      <point x="656.874" y="251.85" type="line"/>
      <point x="646.123" y="88.0023"/>
      <point x="529.088" y="15.6529"/>
      <point x="380" y="17" type="curve" smooth="yes"/>
      <point x="221.003" y="18.4366"/>
      <point x="121.97" y="127.084"/>
      <point x="121.97" y="300.002" type="curve" smooth="yes"/>
      <point x="121.97" y="476.127"/>
      <point x="220.836" y="584.074"/>
      <point x="379.197" y="584.074" type="curve" smooth="yes"/>
      <point x="503.2" y="584.074"/>
      <point x="596.529" y="534.786"/>
      <point x="627.17" y="412.264" type="curve"/>
      <point x="635.963" y="412.232" type="line"/>
      <point x="613.858" y="553.468" type="line"/>
      <point x="552.146" y="590.998"/>
      <point x="462.967" y="614"/>
      <point x="379.647" y="614" type="curve" smooth="yes"/>
      <point x="177.195" y="614"/>
      <point x="49.6616" y="494.681"/>
      <point x="49.6616" y="300.002" type="curve" smooth="yes"/>
      <point x="49.6616" y="106.237"/>
      <point x="177.054" y="-13"/>
      <point x="379.647" y="-14" type="curve"/>
      <point x="497.851" y="-14"/>
      <point x="603.105" y="34.9964"/>
      <point x="655.063" y="114.938" type="curve"/>
      <point x="665.666" y="251.886" type="line"/>
    </contour>
    <contour>
      <point x="380.128" y="664" type="move" name="top"/>
    </contour>
    <contour>
      <point x="380.128" y="-13" type="move" name="bottom"/>
    </contour>
  </outline>
</glyph>
<glyph name="d" format="1">
  <advance width="760"/>
  <unicode hex="0064"/>
  <outline>
    <contour>
      <point x="163.848" y="599.975" type="line"/>
      <point x="163.848" y="569.931" type="line"/>
      <point x="309.34" y="569.931"/>
      <point x="389.063" y="569.936"/>
      <point x="389.063" y="569.944" type="curve" smooth="yes"/>
      <point x="542.587" y="569.944"/>
      <point x="637.775" y="467.255"/>
      <point x="637.775" y="299.709" type="curve" smooth="yes"/>
      <point x="637.775" y="132.762"/>
      <point x="542.613" y="30.4401"/>
      <point x="389.063" y="30.4401" type="curve" smooth="yes"/>
      <point x="389.063" y="30.4475"/>
      <point x="313.307" y="30.452"/>
      <point x="174.218" y="30.452" type="curve"/>
      <point x="175.817" y="0.0569458" type="line"/>
      <point x="388.558" y="0.0569458" type="line"/>
      <point x="585.788" y="0.0569458"/>
      <point x="710.066" y="113.925"/>
      <point x="710.066" y="299.709" type="curve" smooth="yes"/>
      <point x="710.066" y="485.874"/>
      <point x="585.788" y="599.975"/>
      <point x="388.558" y="599.975" type="curve"/>
    </contour>
    <contour>
      <point x="124.589" y="599.975" type="line"/>
      <point x="124.589" y="0.0569458" type="line"/>
      <point x="189.693" y="0.0569458" type="line"/>
      <point x="189.693" y="599.975" type="line"/>
    </contour>
    <contour>
      <point x="124.603" y="64.8138" type="line"/>
      <point x="123.995" y="34.7836"/>
      <point x="100.202" y="9.979"/>
      <point x="68.4882" y="9.979" type="curve" smooth="yes"/>
      <point x="68.3512" y="9.979"/>
      <point x="55.3421" y="10"/>
      <point x="55.1732" y="10" type="curve"/>
      <point x="55" y="0" type="line"/>
      <point x="127.221" y="0" type="line"/>
      <point x="127.221" y="64.8138" type="line"/>
    </contour>
    <contour>
      <point x="127.257" y="600.06" type="line"/>
      <point x="55.0352" y="600.06" type="line"/>
      <point x="55.2094" y="590.06" type="line"/>
      <point x="55.3517" y="590.06"/>
      <point x="67.2851" y="590.08"/>
      <point x="67.4486" y="590.08" type="curve" smooth="yes"/>
      <point x="99.1349" y="590.08"/>
      <point x="124.031" y="567.276"/>
      <point x="124.612" y="535.246" type="curve"/>
      <point x="127.257" y="535.246" type="line"/>
    </contour>
    <contour>
      <point x="405.388" y="250" type="move" name="center"/>
    </contour>
    <contour>
      <point x="387.924" y="665" type="move" name="top"/>
    </contour>
  </outline>
</glyph>
<glyph name="e" format="1">
  <advance width="546"/>
  <unicode hex="0065"/>
  <outline>
    <contour>
      <point x="126.666" y="600" type="line"/>
      <point x="126.666" y="0" type="line"/>
      <point x="190.5" y="0" type="line"/>
      <point x="190.5" y="600" type="line"/>
    </contour>
    <contour>
      <point x="188.58" y="30.5895" type="line"/>
      <point x="188.58" y="0" type="line"/>
      <point x="458.097" y="0" type="line"/>
      <point x="459.693" y="30.5895" type="line"/>
    </contour>
    <contour>
      <point x="188.58" y="315" type="line"/>
      <point x="188.58" y="285" type="line"/>
      <point x="412.734" y="285" type="line"/>
      <point x="412.734" y="315" type="line"/>
    </contour>
    <contour>
      <point x="188.58" y="600" type="line"/>
      <point x="188.58" y="569.409" type="line" smooth="yes"/>
      <point x="458.849" y="569.409" type="line"/>
      <point x="458.849" y="600" type="line"/>
    </contour>
    <contour>
      <point x="505.551" y="143.45" type="line"/>
      <point x="476.752" y="77.8139"/>
      <point x="441.977" y="30.5613"/>
      <point x="342.782" y="30.5613" type="curve"/>
      <point x="308.939" y="0" type="line"/>
      <point x="461.269" y="0" type="line"/>
      <point x="516.39" y="143.45" type="line"/>
    </contour>
    <contour>
      <point x="361" y="287.029" type="line"/>
      <point x="361" y="285.1" type="line"/>
      <point x="388.967" y="284.665"/>
      <point x="401.869" y="265.834"/>
      <point x="401.869" y="242.624" type="curve" smooth="yes"/>
      <point x="401.851" y="229.922" type="line"/>
      <point x="412.734" y="229.815" type="line"/>
      <point x="412.734" y="287.029" type="line"/>
    </contour>
    <contour>
      <point x="401.851" y="370.167" type="line"/>
      <point x="401.87" y="357.465" type="line" smooth="yes"/>
      <point x="401.87" y="334.256"/>
      <point x="388.967" y="315.428"/>
      <point x="361" y="314.993" type="curve"/>
      <point x="361" y="313.065" type="line"/>
      <point x="412.734" y="313.065" type="line"/>
      <point x="412.734" y="370.275" type="line"/>
    </contour>
    <contour>
      <point x="397.704" y="571.746" type="line"/>
      <point x="397.704" y="569.412" type="line"/>
      <point x="428.227" y="568.886"/>
      <point x="447.988" y="546.099"/>
      <point x="447.988" y="518.016" type="curve" smooth="yes"/>
      <point x="447.967" y="502.65" type="line"/>
      <point x="458.849" y="502.521" type="line"/>
      <point x="458.849" y="571.746" type="line"/>
    </contour>
    <contour>
      <point x="441.156" y="608.798"/>
      <point x="385.563" y="599.993"/>
      <point x="345.149" y="599.993" type="curve"/>
      <point x="458.849" y="590.443" type="line"/>
      <point x="458.849" y="615.682" type="line"/>
    </contour>
    <contour>
      <point x="126.701" y="64.1931" type="line"/>
      <point x="126.066" y="34.1629"/>
      <point x="101.601" y="9.979"/>
      <point x="68.9316" y="9.979" type="curve" smooth="yes"/>
      <point x="68.8041" y="9.979"/>
      <point x="55.3798" y="10"/>
      <point x="55.2035" y="10" type="curve"/>
      <point x="55.0228" y="0" type="line"/>
      <point x="141.741" y="0" type="line"/>
      <point x="129.387" y="64.1931" type="line"/>
    </contour>
    <contour>
      <point x="141.718" y="600" type="line"/>
      <point x="55" y="600" type="line"/>
      <point x="55.1819" y="590" type="line"/>
      <point x="55.3581" y="590"/>
      <point x="68.7823" y="590.02"/>
      <point x="68.9098" y="590.02" type="curve" smooth="yes"/>
      <point x="101.579" y="590.02"/>
      <point x="126.044" y="567.216"/>
      <point x="126.678" y="537.186" type="curve"/>
      <point x="129.365" y="537.186" type="line"/>
    </contour>
    <contour>
      <point x="402.97" y="3.00805" type="move" name="ogonek"/>
    </contour>
    <contour>
      <point x="296.982" y="0" type="move" name="bottom"/>
    </contour>
    <contour>
      <point x="296.982" y="664" type="move" name="top"/>
    </contour>
  </outline>
</glyph>
<glyph name="i" format="1">
  <advance width="336"/>
  <unicode hex="0069"/>
  <outline>
    <contour>
      <point x="136.592" y="600" type="line"/>
      <point x="136.592" y="0" type="line"/>
      <point x="200.187" y="0" type="line"/>
      <point x="200.187" y="600" type="line"/>
    </contour>
    <contour>
      <point x="136.594" y="64.1932" type="line"/>
      <point x="135.834" y="34.163"/>
      <point x="105.796" y="9.97907"/>
      <point x="68.5776" y="9.97907" type="curve" smooth="yes"/>
      <point x="68.5229" y="9.97907"/>
      <point x="55.4161" y="10"/>
      <point x="55.234" y="10" type="curve"/>
      <point x="55.0471" y="0" type="line"/>
      <point x="139.606" y="0" type="line"/>
      <point x="139.606" y="64.1932" type="line"/>
    </contour>
    <contour>
      <point x="197.027" y="0" type="line"/>
      <point x="281.587" y="0" type="line"/>
      <point x="281.4" y="10" type="line"/>
      <point x="281.34" y="10"/>
      <point x="268.233" y="9.979"/>
      <point x="268.056" y="9.979" type="curve" smooth="yes"/>
      <point x="230.96" y="9.979"/>
      <point x="200.799" y="34.1629"/>
      <point x="200.161" y="64.1931" type="curve"/>
      <point x="197.027" y="64.1931" type="line"/>
    </contour>
    <contour>
      <point x="200.114" y="535.807" type="line"/>
      <point x="200.753" y="565.837"/>
      <point x="230.913" y="590.021"/>
      <point x="268.009" y="590.021" type="curve" smooth="yes"/>
      <point x="268.186" y="590.021"/>
      <point x="281.293" y="590"/>
      <point x="281.474" y="590" type="curve"/>
      <point x="281.54" y="600" type="line"/>
      <point x="196.981" y="600" type="line"/>
      <point x="196.981" y="535.807" type="line"/>
    </contour>
    <contour>
      <point x="139.56" y="600" type="line"/>
      <point x="55" y="600" type="line"/>
      <point x="55.1871" y="590" type="line"/>
      <point x="55.3687" y="590"/>
      <point x="68.4758" y="590.021"/>
      <point x="68.5306" y="590.021" type="curve" smooth="yes"/>
      <point x="105.749" y="590.021"/>
      <point x="135.788" y="565.837"/>
      <point x="136.547" y="535.807" type="curve"/>
      <point x="139.56" y="535.807" type="line"/>
    </contour>
  </outline>
</glyph>
<glyph name="j" format="1">
  <advance width="309"/>
  <unicode hex="006A"/>
  <outline>
    <contour>
      <point x="132.311" y="599.742" type="line" smooth="yes"/>
      <point x="132.311" y="0" type="line" smooth="yes"/>
      <point x="132.299" y="-74"/>
      <point x="76.8823" y="-148"/>
      <point x="13" y="-168" type="curve"/>
      <point x="13" y="-178" type="line"/>
      <point x="111.511" y="-178"/>
      <point x="196.189" y="-97"/>
      <point x="196.189" y="0" type="curve" smooth="yes"/>
      <point x="196.196" y="600" type="line"/>
    </contour>
    <contour>
      <point x="54.4748" y="599.729" type="line"/>
      <point x="54.6386" y="589.729" type="line"/>
      <point x="67.4907" y="589.75" type="line" smooth="yes"/>
      <point x="103.052" y="589.75"/>
      <point x="131.904" y="565.566"/>
      <point x="132.569" y="535.536" type="curve"/>
      <point x="135.526" y="535.536" type="line"/>
      <point x="135.526" y="599.729" type="line"/>
    </contour>
    <contour>
      <point x="193.281" y="600" type="line"/>
      <point x="193.281" y="535.807" type="line"/>
      <point x="196.237" y="535.807" type="line"/>
      <point x="196.903" y="565.837"/>
      <point x="225.754" y="590.021"/>
      <point x="261.315" y="590.021" type="curve" smooth="yes"/>
      <point x="274.167" y="590" type="line"/>
      <point x="274.331" y="600" type="line"/>
    </contour>
  </outline>
</glyph>
<glyph name="k" format="1">
  <advance width="624"/>
  <unicode hex="006B"/>
  <outline>
    <contour>
      <point x="225.222" y="298.182" type="line"/>
      <point x="225.225" y="298.18"/>
      <point x="445.674" y="56.7786"/>
      <point x="444.634" y="56.7786" type="curve"/>
      <point x="491.682" y="3.19342"/>
      <point x="561.41" y="0.230621"/>
      <point x="591.566" y="0.131409" type="curve" smooth="yes"/>
      <point x="629.148" y="0" type="line"/>
      <point x="629.148" y="10.0749" type="line"/>
      <point x="585.575" y="11.1097"/>
      <point x="565.326" y="23.5424"/>
      <point x="541.569" y="50.9059" type="curve"/>
      <point x="280.564" y="335.286" type="line"/>
    </contour>
    <contour>
      <point x="475.766" y="592.968" type="line"/>
      <point x="225.222" y="298.182" type="line"/>
      <point x="272.237" y="298.182" type="line"/>
      <point x="548.194" y="592.968" type="line"/>
    </contour>
    <contour>
      <point x="608.684" y="600" type="line"/>
      <point x="409.473" y="600" type="line"/>
      <point x="409.473" y="590.204" type="line"/>
      <point x="418.359" y="590.204" type="line"/>
      <point x="441.55" y="590.204"/>
      <point x="454.949" y="569.064"/>
      <point x="440.237" y="551.334" type="curve"/>
      <point x="507.588" y="549.681" type="line"/>
      <point x="531.284" y="575.916"/>
      <point x="568.091" y="590.119"/>
      <point x="608.684" y="590.204" type="curve" smooth="yes"/>
      <point x="612.712" y="590.204" type="line"/>
      <point x="612.712" y="600" type="line"/>
    </contour>
    <contour>
      <point x="125.714" y="600" type="line"/>
      <point x="125.714" y="0" type="line"/>
      <point x="189.645" y="0" type="line"/>
      <point x="189.645" y="600" type="line"/>
    </contour>
    <contour>
      <point x="125.717" y="64.193" type="line"/>
      <point x="125.114" y="34.163"/>
      <point x="99" y="9.979"/>
      <point x="66.8161" y="9.979" type="curve" smooth="yes"/>
      <point x="66.732" y="9.979"/>
      <point x="55.2747" y="10"/>
      <point x="55.1872" y="10" type="curve"/>
      <point x="55.0389" y="0" type="line"/>
      <point x="128.392" y="0" type="line"/>
      <point x="128.392" y="64.193" type="line"/>
    </contour>
    <contour>
      <point x="186.947" y="0" type="line"/>
      <point x="260.301" y="0" type="line"/>
      <point x="260.153" y="10" type="line"/>
      <point x="260.058" y="10"/>
      <point x="248.585" y="9.979"/>
      <point x="248.512" y="9.979" type="curve" smooth="yes"/>
      <point x="216.329" y="9.979"/>
      <point x="190.225" y="34.163"/>
      <point x="189.624" y="64.193" type="curve"/>
      <point x="186.947" y="64.193" type="line"/>
    </contour>
    <contour>
      <point x="189.586" y="535.807" type="line"/>
      <point x="190.188" y="565.837"/>
      <point x="216.289" y="590.021"/>
      <point x="248.474" y="590.021" type="curve" smooth="yes"/>
      <point x="248.55" y="590.021"/>
      <point x="260.02" y="590.021"/>
      <point x="260.115" y="590.021" type="curve"/>
      <point x="260.263" y="600" type="line"/>
      <point x="186.91" y="600" type="line"/>
      <point x="186.91" y="535.807" type="line"/>
    </contour>
    <contour>
      <point x="128.354" y="600" type="line"/>
      <point x="54.9997" y="600" type="line"/>
      <point x="55.1479" y="590.021" type="line"/>
      <point x="55.2361" y="590.021"/>
      <point x="66.6997" y="590.021"/>
      <point x="66.7775" y="590.021" type="curve" smooth="yes"/>
      <point x="98.9676" y="590.021"/>
      <point x="125.076" y="565.837"/>
      <point x="125.677" y="535.807" type="curve"/>
      <point x="128.354" y="535.807" type="line"/>
    </contour>
    <contour>
      <point x="361.115" y="-64" type="move" name="bottom"/>
    </contour>
  </outline>
</glyph>
<glyph name="l" format="1">
  <advance width="536"/>
  <unicode hex="006C"/>
  <outline>
    <contour>
      <point x="126.71" y="600" type="line"/>
      <point x="126.71" y="0" type="line"/>
      <point x="190.544" y="0" type="line"/>
      <point x="190.544" y="600" type="line"/>
    </contour>
    <contour>
      <point x="188.624" y="30.59" type="line"/>
      <point x="188.624" y="0" type="line"/>
      <point x="458.138" y="0" type="line"/>
      <point x="459.776" y="30.59" type="line"/>
    </contour>
    <contour>
      <point x="505.591" y="143.45" type="line"/>
      <point x="476.793" y="77.814"/>
      <point x="442.018" y="30.561"/>
      <point x="342.824" y="30.561" type="curve"/>
      <point x="308.982" y="0" type="line"/>
      <point x="461.31" y="0" type="line"/>
      <point x="516.43" y="143.45" type="line"/>
    </contour>
    <contour>
      <point x="126.745" y="64.193" type="line"/>
      <point x="126.11" y="34.163"/>
      <point x="101.645" y="9.979"/>
      <point x="68.976" y="9.979" type="curve" smooth="yes"/>
      <point x="68.8485" y="9.979"/>
      <point x="55.4244" y="10"/>
      <point x="55.2481" y="10" type="curve"/>
      <point x="55.0674" y="0" type="line"/>
      <point x="141.785" y="0" type="line"/>
      <point x="129.431" y="64.193" type="line"/>
    </contour>
    <contour>
      <point x="190.541" y="535.807" type="line"/>
      <point x="191.132" y="565.837"/>
      <point x="217.624" y="590.021"/>
      <point x="250.25" y="590.021" type="curve" smooth="yes"/>
      <point x="250.397" y="590.021"/>
      <point x="261.91" y="590"/>
      <point x="262.019" y="590" type="curve"/>
      <point x="262.175" y="600" type="line"/>
      <point x="187.811" y="600" type="line"/>
      <point x="187.811" y="535.807" type="line"/>
    </contour>
    <contour>
      <point x="129.365" y="600" type="line"/>
      <point x="55" y="600" type="line"/>
      <point x="55.1561" y="590" type="line"/>
      <point x="55.3076" y="590"/>
      <point x="66.8209" y="590.021"/>
      <point x="66.9248" y="590.021" type="curve" smooth="yes"/>
      <point x="99.594" y="590.021"/>
      <point x="126.044" y="565.837"/>
      <point x="126.677" y="535.807" type="curve"/>
      <point x="129.365" y="535.807" type="line"/>
    </contour>
    <contour>
      <point x="157.273" y="664" type="move" name="top"/>
    </contour>
    <contour>
      <point x="327.959" y="-64" type="move" name="bottom"/>
    </contour>
    <contour>
      <point x="361.442" y="500" type="move" name="topright"/>
    </contour>
  </outline>
</glyph>
<glyph name="n" format="1">
  <advance width="779"/>
  <unicode hex="006E"/>
  <outline>
    <contour>
      <point x="117.915" y="510.837" type="line"/>
      <point x="671.681" y="-14" type="line"/>
      <point x="662.163" y="92.8078" type="line"/>
      <point x="108.143" y="614.952" type="line"/>
    </contour>
    <contour>
      <point x="107.467" y="62.2323" type="line"/>
      <point x="106.885" y="33.2903"/>
      <point x="82.2153" y="9.98059"/>
      <point x="51.7949" y="9.98059" type="curve" smooth="yes"/>
      <point x="51.6543" y="9.98059"/>
      <point x="35.2811" y="9.99363"/>
      <point x="35.1427" y="10" type="curve"/>
      <point x="35" y="0" type="line"/>
      <point x="109.981" y="0" type="line"/>
      <point x="109.981" y="62.2323" type="line"/>
    </contour>
    <contour>
      <point x="149.053" y="62.2323" type="line"/>
      <point x="149.053" y="0" type="line"/>
      <point x="224.034" y="0" type="line"/>
      <point x="223.917" y="10" type="line"/>
      <point x="223.775" y="9.99363"/>
      <point x="207.402" y="9.98059"/>
      <point x="207.263" y="9.98059" type="curve" smooth="yes"/>
      <point x="176.843" y="9.98059"/>
      <point x="152.149" y="33.2903"/>
      <point x="151.588" y="62.2323" type="curve"/>
    </contour>
    <contour>
      <point x="97.8947" y="614.991" type="line"/>
      <point x="97.8947" y="614.991"/>
      <point x="107.476" y="558.335"/>
      <point x="107.476" y="490.069" type="curve" smooth="yes"/>
      <point x="107.476" y="0" type="line"/>
      <point x="151.645" y="0" type="line"/>
      <point x="150.884" y="558.772" type="line"/>
      <point x="108.247" y="615" type="line"/>
    </contour>
    <contour>
      <point x="627.566" y="600.019" type="line"/>
      <point x="627.59" y="39.152" type="line"/>
      <point x="671.681" y="-14" type="line"/>
      <point x="681.198" y="-14" type="line" smooth="yes"/>
      <point x="681.198" y="-14"/>
      <point x="671.712" y="49.1505"/>
      <point x="671.712" y="113.582" type="curve" smooth="yes"/>
      <point x="671.712" y="600.019" type="line"/>
    </contour>
    <contour>
      <point x="671.622" y="537.787" type="line"/>
      <point x="672.177" y="566.729"/>
      <point x="696.875" y="590.038"/>
      <point x="727.294" y="590.038" type="curve" smooth="yes"/>
      <point x="727.435" y="590.038"/>
      <point x="743.784" y="590.025"/>
      <point x="743.923" y="590.019" type="curve"/>
      <point x="744.065" y="600.019" type="line"/>
      <point x="669.084" y="600.019" type="line"/>
      <point x="669.084" y="537.787" type="line"/>
    </contour>
    <contour>
      <point x="630.177" y="537.787" type="line"/>
      <point x="630.177" y="600.019" type="line"/>
      <point x="555.196" y="600.019" type="line"/>
      <point x="555.338" y="590.019" type="line"/>
      <point x="555.478" y="590.025"/>
      <point x="571.829" y="590.038"/>
      <point x="571.968" y="590.038" type="curve" smooth="yes"/>
      <point x="602.385" y="590.038"/>
      <point x="627.081" y="566.729"/>
      <point x="627.666" y="537.787" type="curve"/>
    </contour>
    <contour>
      <point x="388.013" y="664" type="move" name="top"/>
    </contour>
    <contour>
      <point x="398.013" y="-64" type="move" name="bottom"/>
    </contour>
  </outline>
</glyph>
<glyph name="s" format="1">
  <advance width="462"/>
  <unicode hex="0073"/>
  <outline>
    <contour>
      <point x="141.529" y="614"/>
      <point x="67.5708" y="549.254"/>
      <point x="68.7659" y="468" type="curve" smooth="yes"/>
      <point x="69.2765" y="433.288"/>
      <point x="79.3149" y="391.732"/>
      <point x="116.542" y="359.935" type="curve" smooth="yes"/>
      <point x="316.587" y="205.577" type="line" smooth="yes"/>
      <point x="342.353" y="183.016"/>
      <point x="353.016" y="157.567"/>
      <point x="353.016" y="126.431" type="curve" smooth="yes"/>
      <point x="353.016" y="61.4406"/>
      <point x="302.431" y="18.3525"/>
      <point x="219.766" y="16" type="curve" smooth="yes"/>
      <point x="131.532" y="13.4891"/>
      <point x="70.8712" y="67.1875"/>
      <point x="79.7117" y="157.282" type="curve"/>
      <point x="68.1864" y="157.282" type="line"/>
      <point x="54.5297" y="118.629"/>
      <point x="51.9628" y="59.7156"/>
      <point x="58.2656" y="33.1022" type="curve"/>
      <point x="94.6921" y="0.448135"/>
      <point x="171.502" y="-14"/>
      <point x="230.766" y="-14" type="curve" smooth="yes"/>
      <point x="329.451" y="-14"/>
      <point x="408.558" y="57.7748"/>
      <point x="407.766" y="147" type="curve" smooth="yes"/>
      <point x="407.421" y="185.885"/>
      <point x="393.308" y="228.547"/>
      <point x="362.489" y="254.436" type="curve" smooth="yes"/>
      <point x="160.077" y="410.249" type="line" smooth="yes"/>
      <point x="128.716" y="435.443"/>
      <point x="120.951" y="463.293"/>
      <point x="120.766" y="489" type="curve" smooth="yes"/>
      <point x="120.383" y="542.161"/>
      <point x="174.161" y="584.385"/>
      <point x="240.947" y="584.385" type="curve" smooth="yes"/>
      <point x="319.414" y="584.385"/>
      <point x="356.492" y="551.372"/>
      <point x="356.492" y="495.96" type="curve"/>
      <point x="367.946" y="495.96" type="line"/>
      <point x="366.596" y="594.508" type="line"/>
      <point x="343.119" y="603.266"/>
      <point x="308.406" y="614"/>
      <point x="234.103" y="614" type="curve" smooth="yes"/>
    </contour>
    <contour>
      <point x="296.472" y="604.742" type="line"/>
      <point x="296.472" y="587.274" type="line"/>
      <point x="366.656" y="587.274" type="line"/>
      <point x="366.443" y="604.742" type="line"/>
    </contour>
    <contour>
      <point x="232.269" y="664" type="move" name="top"/>
    </contour>
    <contour>
      <point x="229.058" y="-64" type="move" name="bottom"/>
    </contour>
  </outline>
</glyph>
<glyph name="u" format="1">
  <advance width="700"/>
  <unicode hex="0075"/>
  <outline>
    <contour>
      <point x="102.948" y="600" type="line"/>
      <point x="102.86" y="209.79" type="line" smooth="yes"/>
      <point x="102.829" y="71.0401"/>
      <point x="198.524" y="-14"/>
      <point x="352.954" y="-14" type="curve" smooth="yes"/>
      <point x="507.315" y="-14"/>
      <point x="602.233" y="71.6114"/>
      <point x="602.245" y="211.293" type="curve" smooth="yes"/>
      <point x="602.282" y="599.979" type="line"/>
      <point x="556.033" y="599.979" type="line"/>
      <point x="555.757" y="211.344" type="line" smooth="yes"/>
      <point x="555.699" y="88.4645"/>
      <point x="478.239" y="13.1512"/>
      <point x="352.105" y="13.1512" type="curve" smooth="yes"/>
      <point x="237.256" y="13.1512"/>
      <point x="166.777" y="92.688"/>
      <point x="166.777" y="222.459" type="curve"/>
      <point x="166.835" y="600" type="line"/>
    </contour>
    <contour>
      <point x="40" y="600" type="line"/>
      <point x="40" y="590" type="line"/>
      <point x="40.1207" y="590"/>
      <point x="54.7179" y="590.017"/>
      <point x="54.8367" y="590.017" type="curve" smooth="yes"/>
      <point x="81.1129" y="590.017"/>
      <point x="102.414" y="571.496"/>
      <point x="102.92" y="546.706" type="curve"/>
      <point x="105.106" y="546.706" type="line"/>
      <point x="105.106" y="600" type="line"/>
    </contour>
    <contour>
      <point x="164.697" y="600" type="line"/>
      <point x="164.697" y="546.706" type="line"/>
      <point x="166.881" y="546.706" type="line"/>
      <point x="167.388" y="571.496"/>
      <point x="188.719" y="590.017"/>
      <point x="214.993" y="590.017" type="curve" smooth="yes"/>
      <point x="215.113" y="590.017"/>
      <point x="229.682" y="590"/>
      <point x="229.801" y="590" type="curve"/>
      <point x="229.801" y="600" type="line"/>
    </contour>
    <contour>
      <point x="493.092" y="600" type="line"/>
      <point x="493.092" y="590" type="line"/>
      <point x="493.214" y="590"/>
      <point x="507.811" y="590.017"/>
      <point x="507.93" y="590.017" type="curve" smooth="yes"/>
      <point x="534.206" y="590.017"/>
      <point x="555.537" y="571.496"/>
      <point x="556.014" y="546.706" type="curve"/>
      <point x="558.198" y="546.706" type="line"/>
      <point x="558.198" y="600" type="line"/>
    </contour>
    <contour>
      <point x="600.052" y="600" type="line"/>
      <point x="600.052" y="546.706" type="line"/>
      <point x="602.237" y="546.706" type="line"/>
      <point x="602.743" y="571.496"/>
      <point x="624.046" y="590.017"/>
      <point x="650.32" y="590.017" type="curve" smooth="yes"/>
      <point x="650.44" y="590.017"/>
      <point x="665.038" y="590"/>
      <point x="665.159" y="590" type="curve"/>
      <point x="665.159" y="600" type="line"/>
    </contour>
    <contour>
      <point x="337.313" y="-10.3689" type="move" name="ogonek"/>
    </contour>
    <contour>
      <point x="350.565" y="664" type="move" name="top"/>
    </contour>
  </outline>
</glyph>
<glyph name="w" format="1">
  <advance width="899"/>
  <unicode hex="0077"/>
  <outline>
    <contour>
      <point x="289.586" y="-12" type="line"/>
      <point x="298.655" y="100.962" type="line"/>
      <point x="137.062" y="593.934" type="line"/>
      <point x="57.0358" y="593.96" type="line"/>
    </contour>
    <contour>
      <point x="458.437" y="615.642" type="line"/>
      <point x="271.115" y="76.7841" type="line"/>
      <point x="289.586" y="-12" type="line"/>
      <point x="299.368" y="-12" type="line"/>
      <point x="301.1" y="37.1491"/>
      <point x="321.002" y="99.1555"/>
      <point x="321.002" y="99.1555" type="curve"/>
      <point x="476.08" y="534.818" type="line"/>
      <point x="467.907" y="615.642" type="line"/>
    </contour>
    <contour>
      <point x="434.161" y="507.38" type="line"/>
      <point x="637.011" y="-12" type="line"/>
      <point x="659.559" y="125.554" type="line"/>
      <point x="468.108" y="615.321" type="line"/>
    </contour>
    <contour>
      <point x="778.702" y="594.217" type="line"/>
      <point x="624.936" y="86.9333" type="line"/>
      <point x="637.011" y="-12" type="line"/>
      <point x="646.792" y="-12" type="line"/>
      <point x="648.513" y="35.6244"/>
      <point x="669.593" y="99.1555"/>
      <point x="669.593" y="99.1555" type="curve"/>
      <point x="836.458" y="594.217" type="line"/>
    </contour>
    <contour>
      <point x="814.619" y="529.504" type="line"/>
      <point x="827.254" y="564.792"/>
      <point x="854.702" y="590"/>
      <point x="896.546" y="590" type="curve" smooth="yes"/>
      <point x="896.546" y="590"/>
      <point x="904.391" y="590"/>
      <point x="904.391" y="590" type="curve"/>
      <point x="904.391" y="600" type="line"/>
      <point x="721.11" y="600" type="line"/>
      <point x="721.11" y="590.092" type="line"/>
      <point x="728.956" y="590.092" type="line" smooth="yes"/>
      <point x="750.298" y="590.092"/>
      <point x="773.127" y="572.508"/>
      <point x="759.042" y="529.504" type="curve"/>
    </contour>
    <contour>
      <point x="143.61" y="573.782"/>
      <point x="168.462" y="590.092"/>
      <point x="189.84" y="590.092" type="curve" smooth="yes"/>
      <point x="197.668" y="590.092" type="line"/>
      <point x="197.668" y="600" type="line"/>
      <point x="-8" y="600" type="line"/>
      <point x="-8" y="590" type="line"/>
      <point x="-8" y="590"/>
      <point x="0.289269" y="590"/>
      <point x="0.289269" y="590" type="curve" smooth="yes"/>
      <point x="41.6886" y="590"/>
      <point x="69.2103" y="564.792"/>
      <point x="81.789" y="529.504" type="curve"/>
      <point x="157.603" y="530.778" type="line"/>
    </contour>
    <contour>
      <point x="463.149" y="665.642" type="move" name="top"/>
    </contour>
  </outline>
</glyph>
<glyph name="x" format="1">
  <advance width="626"/>
  <unicode hex="0078"/>
  <outline>
    <contour>
      <point x="73.3592" y="598.976" type="line"/>
      <point x="488.45" y="1" type="line"/>
      <point x="568.759" y="1" type="line"/>
      <point x="151.559" y="598.976" type="line"/>
    </contour>
    <contour>
      <point x="98.4972" y="60.813" type="line"/>
      <point x="77.1968" y="34.1991"/>
      <point x="42.1375" y="10"/>
      <point x="1.71896" y="10" type="curve" smooth="yes"/>
      <point x="-11" y="10" type="line"/>
      <point x="-11" y="0" type="line"/>
      <point x="207.285" y="0" type="line"/>
      <point x="207.285" y="10" type="line"/>
      <point x="207.285" y="10"/>
      <point x="195.221" y="10"/>
      <point x="195.221" y="10" type="curve" smooth="yes"/>
      <point x="169.07" y="10"/>
      <point x="143.77" y="39.1708"/>
      <point x="161.71" y="63.6415" type="curve"/>
    </contour>
    <contour>
      <point x="51.7433" y="1" type="line"/>
      <point x="115.362" y="1" type="line"/>
      <point x="316.158" y="272.431" type="line"/>
      <point x="295.624" y="313.403" type="line"/>
    </contour>
    <contour>
      <point x="461.406" y="38.6138"/>
      <point x="437.975" y="10"/>
      <point x="411.825" y="10" type="curve" smooth="yes"/>
      <point x="411.825" y="10"/>
      <point x="399.762" y="10"/>
      <point x="399.762" y="10" type="curve"/>
      <point x="399.762" y="0" type="line"/>
      <point x="636.981" y="0" type="line"/>
      <point x="636.981" y="10" type="line"/>
      <point x="623.926" y="10" type="line" smooth="yes"/>
      <point x="583.699" y="10"/>
      <point x="546.713" y="33.6673"/>
      <point x="527.339" y="60.281" type="curve"/>
      <point x="445.366" y="63.0845" type="line"/>
    </contour>
    <contour>
      <point x="5.01569" y="600" type="line"/>
      <point x="5.01569" y="590" type="line"/>
      <point x="17.9229" y="590" type="line" smooth="yes"/>
      <point x="58.1797" y="590"/>
      <point x="95.0813" y="566.333"/>
      <point x="114.51" y="539.719" type="curve"/>
      <point x="194.857" y="536.916" type="line"/>
      <point x="178.817" y="561.386"/>
      <point x="202.25" y="590"/>
      <point x="228.4" y="590" type="curve" smooth="yes"/>
      <point x="228.4" y="590"/>
      <point x="240.462" y="590"/>
      <point x="240.462" y="590" type="curve"/>
      <point x="240.462" y="600" type="line"/>
    </contour>
    <contour>
      <point x="485.163" y="598.981" type="line"/>
      <point x="314.525" y="344.589" type="line"/>
      <point x="340.335" y="302.952" type="line"/>
      <point x="553.152" y="598.981" type="line"/>
    </contour>
    <contour>
      <point x="397.59" y="600" type="line"/>
      <point x="397.59" y="590" type="line"/>
      <point x="397.59" y="590"/>
      <point x="409.652" y="590"/>
      <point x="409.652" y="590" type="curve" smooth="yes"/>
      <point x="435.804" y="590"/>
      <point x="459.078" y="560.829"/>
      <point x="443.165" y="536.359" type="curve"/>
      <point x="510.162" y="539.187" type="line"/>
      <point x="530.493" y="566.801"/>
      <point x="566.157" y="590"/>
      <point x="606.383" y="590" type="curve" smooth="yes"/>
      <point x="619.812" y="590" type="line"/>
      <point x="619.812" y="600" type="line"/>
    </contour>
  </outline>
</glyph>
<glyph name="z" format="1">
  <advance width="608"/>
  <unicode hex="007A"/>
  <outline>
    <contour>
      <point x="507.005" y="607.817"/>
      <point x="449.441" y="601.098"/>
      <point x="406.511" y="601.098" type="curve"/>
      <point x="65.3086" y="600.737" type="line"/>
      <point x="65.3086" y="570.856" type="line"/>
      <point x="422.902" y="570.855" type="line"/>
      <point x="50.2013" y="9.32178" type="line"/>
      <point x="50" y="0" type="line"/>
      <point x="119.714" y="0" type="line"/>
      <point x="519.595" y="605.328" type="line"/>
      <point x="519.595" y="605.33"/>
      <point x="519.595" y="614"/>
      <point x="519.595" y="614" type="curve"/>
    </contour>
    <contour>
      <point x="114.595" y="30" type="line"/>
      <point x="114.595" y="0" type="line"/>
      <point x="522.245" y="0" type="line"/>
      <point x="528.791" y="30" type="line"/>
    </contour>
    <contour>
      <point x="572.608" y="142.867" type="line"/>
      <point x="544.373" y="77.2307"/>
      <point x="509.842" y="30.9777"/>
      <point x="412.564" y="29.9777" type="curve"/>
      <point x="379.367" y="0" type="line"/>
      <point x="529.343" y="0" type="line"/>
      <point x="583.29" y="142.867" type="line"/>
    </contour>
    <contour>
      <point x="65.3086" y="503.992" type="line"/>
      <point x="76.0308" y="504.121" type="line"/>
      <point x="76.01" y="519.487" type="line" smooth="yes"/>
      <point x="76.01" y="547.57"/>
      <point x="95.6466" y="570.357"/>
      <point x="126.007" y="570.883" type="curve"/>
      <point x="126.007" y="573.217" type="line"/>
      <point x="65.3086" y="573.217" type="line"/>
    </contour>
    <contour>
      <point x="65.3086" y="591.294" type="line"/>
      <point x="177.098" y="600.844" type="line"/>
      <point x="137.341" y="601.844"/>
      <point x="82.6929" y="609.649"/>
      <point x="65.3086" y="616.533" type="curve"/>
    </contour>
    <contour>
      <point x="299.771" y="664" type="move" name="top"/>
    </contour>
  </outline>
</glyph>
<glyph name="Aring" format="1">
  <advance width="712"/>
  <unicode hex="00C5"/>
  <outline>
    <contour>
      <point x="339.4" y="619" type="line"/>
      <point x="569.573" y="6.09493" type="line"/>
      <point x="654.633" y="6.09493" type="line"/>
      <point x="359.414" y="714" type="line"/>
    </contour>
    <contour>
      <point x="86.6599" y="73.0126" type="line"/>
      <point x="66.4484" y="28.4642"/>
      <point x="29.4381" y="10"/>
      <point x="-1" y="10" type="curve" smooth="yes"/>
      <point x="-1" y="10"/>
      <point x="-10" y="10"/>
      <point x="-10" y="10" type="curve"/>
      <point x="-10" y="0" type="line"/>
      <point x="191.278" y="0" type="line"/>
      <point x="191.278" y="9.90791" type="line"/>
      <point x="182.486" y="9.90791" type="line" smooth="yes"/>
      <point x="156.669" y="9.90791"/>
      <point x="129.884" y="32.6635"/>
      <point x="144.486" y="72.6814" type="curve"/>
    </contour>
    <contour>
      <point x="350.408" y="714" type="line"/>
      <point x="350.408" y="692.013"/>
      <point x="313.382" y="611"/>
      <point x="313.382" y="611" type="curve"/>
      <point x="57.1902" y="3.09493" type="line"/>
      <point x="117.233" y="3.09493" type="line"/>
      <point x="368.42" y="644" type="line"/>
      <point x="359.414" y="714" type="line"/>
    </contour>
    <contour>
      <point x="187.293" y="273" type="line"/>
      <point x="187.293" y="243" type="line"/>
      <point x="499.513" y="243" type="line"/>
      <point x="499.513" y="273" type="line"/>
    </contour>
    <contour>
      <point x="559.169" y="32.6639"/>
      <point x="532.384" y="9.91053"/>
      <point x="506.568" y="9.91053" type="curve" smooth="yes"/>
      <point x="497.776" y="9.91053" type="line"/>
      <point x="497.776" y="0" type="line"/>
      <point x="722.956" y="0" type="line"/>
      <point x="722.956" y="10" type="line"/>
      <point x="722.956" y="10"/>
      <point x="714.593" y="10"/>
      <point x="714.593" y="10" type="curve" smooth="yes"/>
      <point x="683.946" y="10"/>
      <point x="646.936" y="28.4639"/>
      <point x="626.724" y="73.0129" type="curve"/>
      <point x="544.567" y="72.6809" type="line"/>
    </contour>
    <contour>
      <point x="307.444" y="837.345"/>
      <point x="270.773" y="809.127"/>
      <point x="270.773" y="769.351" type="curve" smooth="yes"/>
      <point x="270.773" y="729.575"/>
      <point x="307.444" y="701.357"/>
      <point x="355.855" y="701.357" type="curve" smooth="yes"/>
      <point x="404.267" y="701.357"/>
      <point x="440.938" y="729.575"/>
      <point x="440.938" y="769.351" type="curve" smooth="yes"/>
      <point x="440.938" y="812.127"/>
      <point x="404.267" y="837.345"/>
      <point x="355.855" y="837.345" type="curve" smooth="yes"/>
    </contour>
    <contour>
      <point x="380.934" y="821.784"/>
      <point x="400.305" y="803.1"/>
      <point x="400.305" y="769.351" type="curve" smooth="yes"/>
      <point x="400.305" y="735.602"/>
      <point x="380.934" y="716.918"/>
      <point x="355.856" y="716.918" type="curve" smooth="yes"/>
      <point x="330.777" y="716.918"/>
      <point x="311.406" y="735.602"/>
      <point x="311.406" y="769.351" type="curve" smooth="yes"/>
      <point x="311.406" y="803.1"/>
      <point x="330.777" y="821.784"/>
      <point x="355.856" y="821.784" type="curve" smooth="yes"/>
    </contour>
  </outline>
</glyph>
<glyph name="AE" format="1">
  <advance width="902"/>
  <unicode hex="00C6"/>
  <outline>
    <contour>
      <point x="89.2052" y="71.347" type="line"/>
      <point x="69.4679" y="39.6718"/>
      <point x="30.1823" y="10"/>
      <point x="-3" y="10" type="curve" smooth="yes"/>
      <point x="-3" y="10"/>
      <point x="-10" y="10"/>
      <point x="-10" y="10" type="curve"/>
      <point x="-10" y="0" type="line"/>
      <point x="188.523" y="0" type="line"/>
      <point x="188.523" y="10" type="line"/>
      <point x="179.077" y="10" type="line" smooth="yes"/>
      <point x="149.011" y="8.20162"/>
      <point x="135.686" y="38.6651"/>
      <point x="152.534" y="67.3291" type="curve"/>
    </contour>
    <contour>
      <point x="465.555" y="653.94" type="line"/>
      <point x="465.555" y="0" type="line"/>
      <point x="530.588" y="0" type="line"/>
      <point x="530.588" y="700" type="line"/>
    </contour>
    <contour>
      <point x="465.55" y="58.3566" type="line"/>
      <point x="465.046" y="31.5608"/>
      <point x="443.202" y="9.98447"/>
      <point x="416.278" y="9.98447" type="curve" smooth="yes"/>
      <point x="416.161" y="9.98447"/>
      <point x="406.668" y="10"/>
      <point x="406.547" y="10" type="curve"/>
      <point x="406.423" y="0" type="line"/>
      <point x="467.788" y="0" type="line"/>
      <point x="467.788" y="58.3566" type="line"/>
    </contour>
    <contour>
      <point x="527.769" y="30.5895" type="line"/>
      <point x="527.769" y="0" type="line"/>
      <point x="800.544" y="0" type="line"/>
      <point x="800.544" y="30.5895" type="line"/>
    </contour>
    <contour>
      <point x="297.949" y="350.218" type="line"/>
      <point x="292.949" y="320.218" type="line"/>
      <point x="757.946" y="320.218" type="line"/>
      <point x="757.946" y="350.218" type="line"/>
    </contour>
    <contour>
      <point x="437.553" y="700" type="line"/>
      <point x="437.553" y="690" type="line"/>
      <point x="441.553" y="690" type="line"/>
      <point x="460.307" y="690"/>
      <point x="471.17" y="672.717"/>
      <point x="463.278" y="655.434" type="curve"/>
      <point x="45.5262" y="2.99994" type="line"/>
      <point x="114.569" y="2.99994" type="line"/>
      <point x="487.757" y="635.308" type="line" smooth="yes"/>
      <point x="490.757" y="669.409" type="line"/>
      <point x="800.498" y="669.409" type="line"/>
      <point x="800.498" y="700" type="line"/>
    </contour>
    <contour>
      <point x="847.685" y="138.8" type="line"/>
      <point x="821.347" y="75.8757"/>
      <point x="772.841" y="30.5759"/>
      <point x="692.706" y="30.5759" type="curve"/>
      <point x="662.703" y="0" type="line"/>
      <point x="801.993" y="0" type="line"/>
      <point x="857.685" y="138.8" type="line"/>
    </contour>
    <contour>
      <point x="699.59" y="322.487" type="line"/>
      <point x="699.59" y="320.249" type="line"/>
      <point x="726.385" y="319.745"/>
      <point x="747.961" y="297.901"/>
      <point x="747.961" y="270.977" type="curve" smooth="yes"/>
      <point x="747.946" y="256.243" type="line"/>
      <point x="757.946" y="256.119" type="line"/>
      <point x="757.946" y="322.487" type="line"/>
    </contour>
    <contour>
      <point x="747.946" y="414.25" type="line"/>
      <point x="747.963" y="399.516" type="line" smooth="yes"/>
      <point x="747.963" y="372.593"/>
      <point x="726.385" y="350.753"/>
      <point x="699.59" y="350.248" type="curve"/>
      <point x="699.59" y="348.012" type="line"/>
      <point x="757.946" y="348.012" type="line"/>
      <point x="757.946" y="414.375" type="line"/>
    </contour>
    <contour>
      <point x="742.143" y="671.625" type="line"/>
      <point x="742.143" y="669.387" type="line"/>
      <point x="768.94" y="668.883"/>
      <point x="790.514" y="647.038"/>
      <point x="790.514" y="620.115" type="curve" smooth="yes"/>
      <point x="790.498" y="605.384" type="line"/>
      <point x="800.498" y="605.26" type="line"/>
      <point x="800.498" y="671.625" type="line"/>
    </contour>
    <contour>
      <point x="781.549" y="710.201"/>
      <point x="721.926" y="699.987"/>
      <point x="678.567" y="699.987" type="curve"/>
      <point x="800.498" y="688.909" type="line"/>
      <point x="800.498" y="718.187" type="line"/>
    </contour>
    <contour>
      <point x="612" y="700" type="move" name="top"/>
    </contour>
  </outline>
</glyph>
<glyph name="Oslash" format="1">
  <advance width="828"/>
  <unicode hex="00D8"/>
  <outline>
    <contour>
      <point x="201.773" y="714"/>
      <point x="60" y="568.397"/>
      <point x="60" y="349.992" type="curve" smooth="yes"/>
      <point x="60" y="131.597"/>
      <point x="201.773" y="-14"/>
      <point x="414.432" y="-14" type="curve" smooth="yes"/>
      <point x="627.092" y="-14"/>
      <point x="768.865" y="131.597"/>
      <point x="768.865" y="349.992" type="curve" smooth="yes"/>
      <point x="768.865" y="568.397"/>
      <point x="627.092" y="714"/>
      <point x="414.432" y="714" type="curve" smooth="yes"/>
    </contour>
    <contour>
      <point x="244.773" y="15.9248"/>
      <point x="131.667" y="149.552"/>
      <point x="131.667" y="349.992" type="curve" smooth="yes"/>
      <point x="131.667" y="550.442"/>
      <point x="244.773" y="684.075"/>
      <point x="414.432" y="684.075" type="curve" smooth="yes"/>
      <point x="584.092" y="684.075"/>
      <point x="697.198" y="550.442"/>
      <point x="697.198" y="349.992" type="curve" smooth="yes"/>
      <point x="697.198" y="149.552"/>
      <point x="584.092" y="15.9248"/>
      <point x="414.432" y="15.9248" type="curve" smooth="yes"/>
    </contour>
    <contour>
      <point x="97.8437" y="-1" type="line"/>
      <point x="122.854" y="-23" type="line"/>
      <point x="724.701" y="699.577" type="line"/>
      <point x="699.389" y="722.336" type="line"/>
    </contour>
    <contour>
      <point x="300" y="700" type="move" name="top"/>
    </contour>
  </outline>
</glyph>
<glyph name="Hbar" format="1">
  <advance width="778"/>
  <unicode hex="0126"/>
  <outline>
    <contour>
      <point x="56.268" y="528.11" type="line"/>
      <point x="56.268" y="498.11" type="line"/>
      <point x="725.012" y="498.11" type="line"/>
      <point x="725.012" y="528.11" type="line"/>
    </contour>
    <contour>
      <point x="593.836" y="700" type="line"/>
      <point x="593.836" y="0" type="line"/>
      <point x="658.883" y="0" type="line"/>
      <point x="658.883" y="700" type="line"/>
    </contour>
    <contour>
      <point x="119.567" y="700" type="line"/>
      <point x="119.567" y="0" type="line"/>
      <point x="184.614" y="0" type="line"/>
      <point x="184.614" y="700" type="line"/>
    </contour>
    <contour>
      <point x="174.268" y="361.058" type="line"/>
      <point x="174.268" y="331.058" type="line"/>
      <point x="603.012" y="331.058" type="line"/>
      <point x="603.012" y="361.058" type="line"/>
    </contour>
    <contour>
      <point x="119.559" y="72.8641" type="line"/>
      <point x="118.904" y="38.0291"/>
      <point x="90.5069" y="9.97907"/>
      <point x="55.5049" y="9.97907" type="curve" smooth="yes"/>
      <point x="55.3529" y="9.97907"/>
      <point x="43.0119" y="10"/>
      <point x="42.8549" y="10" type="curve"/>
      <point x="42.6939" y="0" type="line"/>
      <point x="122.469" y="0" type="line"/>
      <point x="122.469" y="72.8641" type="line"/>
    </contour>
    <contour>
      <point x="122.485" y="700.06" type="line"/>
      <point x="42.7096" y="700.06" type="line"/>
      <point x="42.8716" y="690.06" type="line"/>
      <point x="43.0286" y="690.06"/>
      <point x="55.3696" y="690.08"/>
      <point x="55.5216" y="690.08" type="curve" smooth="yes"/>
      <point x="90.5226" y="690.08"/>
      <point x="118.92" y="662.03"/>
      <point x="119.576" y="627.196" type="curve"/>
      <point x="122.485" y="627.196" type="line"/>
    </contour>
    <contour>
      <point x="181.706" y="0" type="line"/>
      <point x="261.481" y="0" type="line"/>
      <point x="261.32" y="10" type="line"/>
      <point x="261.163" y="10"/>
      <point x="248.822" y="9.979"/>
      <point x="248.67" y="9.979" type="curve" smooth="yes"/>
      <point x="213.668" y="9.979"/>
      <point x="185.271" y="38.029"/>
      <point x="184.616" y="72.864" type="curve"/>
      <point x="181.706" y="72.864" type="line"/>
    </contour>
    <contour>
      <point x="184.599" y="627.196" type="line"/>
      <point x="185.255" y="662.03"/>
      <point x="213.652" y="690.08"/>
      <point x="248.653" y="690.08" type="curve" smooth="yes"/>
      <point x="248.805" y="690.08"/>
      <point x="261.146" y="690.06"/>
      <point x="261.303" y="690.06" type="curve"/>
      <point x="261.465" y="700.06" type="line"/>
      <point x="181.69" y="700.06" type="line"/>
      <point x="181.69" y="627.196" type="line"/>
    </contour>
    <contour>
      <point x="593.855" y="72.864" type="line"/>
      <point x="593.2" y="38.029"/>
      <point x="564.803" y="9.979"/>
      <point x="529.801" y="9.979" type="curve" smooth="yes"/>
      <point x="529.649" y="9.979"/>
      <point x="517.308" y="10"/>
      <point x="517.151" y="10" type="curve"/>
      <point x="516.99" y="0" type="line"/>
      <point x="596.765" y="0" type="line"/>
      <point x="596.765" y="72.864" type="line"/>
    </contour>
    <contour>
      <point x="596.781" y="700.06" type="line"/>
      <point x="517.006" y="700.06" type="line"/>
      <point x="517.168" y="690.06" type="line"/>
      <point x="517.325" y="690.06"/>
      <point x="529.666" y="690.08"/>
      <point x="529.818" y="690.08" type="curve" smooth="yes"/>
      <point x="564.819" y="690.08"/>
      <point x="593.216" y="662.03"/>
      <point x="593.872" y="627.196" type="curve"/>
      <point x="596.781" y="627.196" type="line"/>
    </contour>
    <contour>
      <point x="656.002" y="0" type="line"/>
      <point x="735.777" y="0" type="line"/>
      <point x="735.616" y="10" type="line"/>
      <point x="735.459" y="10"/>
      <point x="723.118" y="9.979"/>
      <point x="722.966" y="9.979" type="curve" smooth="yes"/>
      <point x="687.964" y="9.979"/>
      <point x="659.567" y="38.029"/>
      <point x="658.912" y="72.864" type="curve"/>
      <point x="656.002" y="72.864" type="line"/>
    </contour>
    <contour>
      <point x="658.895" y="627.196" type="line"/>
      <point x="659.551" y="662.03"/>
      <point x="687.948" y="690.08"/>
      <point x="722.949" y="690.08" type="curve" smooth="yes"/>
      <point x="723.101" y="690.08"/>
      <point x="735.442" y="690.06"/>
      <point x="735.599" y="690.06" type="curve"/>
      <point x="735.761" y="700.06" type="line"/>
      <point x="655.986" y="700.06" type="line"/>
      <point x="655.986" y="627.196" type="line"/>
    </contour>
  </outline>
</glyph>
<glyph name="iogonek" format="1">
  <advance width="307"/>
  <unicode hex="012F"/>
  <outline>
    <contour>
      <point x="123.249" y="600" type="line"/>
      <point x="123.249" y="0" type="line"/>
      <point x="187.296" y="0" type="line"/>
      <point x="187.296" y="600" type="line"/>
    </contour>
    <contour>
      <point x="123.251" y="64.193" type="line"/>
      <point x="122.686" y="34.163"/>
      <point x="98.206" y="9.979"/>
      <point x="68.0317" y="9.979" type="curve" smooth="yes"/>
      <point x="67.9007" y="9.979"/>
      <point x="57.2617" y="10"/>
      <point x="57.1267" y="10" type="curve"/>
      <point x="56.9877" y="0" type="line"/>
      <point x="125.759" y="0" type="line"/>
      <point x="125.759" y="64.193" type="line"/>
    </contour>
    <contour>
      <point x="184.768" y="0" type="line"/>
      <point x="253.54" y="0" type="line"/>
      <point x="253.401" y="10" type="line"/>
      <point x="253.266" y="10"/>
      <point x="242.627" y="9.979"/>
      <point x="242.496" y="9.979" type="curve" smooth="yes"/>
      <point x="212.322" y="9.979"/>
      <point x="187.841" y="34.163"/>
      <point x="187.277" y="64.193" type="curve"/>
      <point x="184.768" y="64.193" type="line"/>
    </contour>
    <contour>
      <point x="187.242" y="535.807" type="line"/>
      <point x="187.807" y="565.837"/>
      <point x="212.287" y="590.021"/>
      <point x="242.461" y="590.021" type="curve" smooth="yes"/>
      <point x="242.592" y="590.021"/>
      <point x="253.231" y="590"/>
      <point x="253.366" y="590" type="curve"/>
      <point x="253.505" y="600" type="line"/>
      <point x="184.734" y="600" type="line"/>
      <point x="184.734" y="535.807" type="line"/>
    </contour>
    <contour>
      <point x="125.725" y="600" type="line"/>
      <point x="56.9527" y="600" type="line"/>
      <point x="57.0917" y="590" type="line"/>
      <point x="57.2267" y="590"/>
      <point x="67.8657" y="590.021"/>
      <point x="67.9967" y="590.021" type="curve" smooth="yes"/>
      <point x="98.171" y="590.021"/>
      <point x="122.652" y="565.837"/>
      <point x="123.216" y="535.807" type="curve"/>
      <point x="125.725" y="535.807" type="line"/>
    </contour>
    <contour>
      <point x="105.319" y="3.0077"/>
      <point x="54.3935" y="-36"/>
      <point x="55.0055" y="-89" type="curve" smooth="yes"/>
      <point x="56.3295" y="-205"/>
      <point x="198.796" y="-208"/>
      <point x="229.019" y="-126" type="curve"/>
      <point x="223.019" y="-120" type="line"/>
      <point x="173.891" y="-171"/>
      <point x="103.049" y="-135"/>
      <point x="101.049" y="-78" type="curve" smooth="yes"/>
      <point x="99.731" y="-40"/>
      <point x="120.126" y="-13"/>
      <point x="175.554" y="0.00769997" type="curve"/>
      <point x="165.554" y="3.0077" type="line"/>
    </contour>
  </outline>
</glyph>
<glyph name="quoteright" format="1">
  <advance width="200"/>
  <unicode hex="2019"/>
  <outline>
    <contour>
      <point x="49.6932" y="732.193"/>
      <point x="71.0351" y="714.518"/>
      <point x="84.1904" y="698.774" type="curve" smooth="yes"/>
      <point x="101.459" y="678.038"/>
      <point x="111.507" y="625.883"/>
      <point x="50.1161" y="606.065" type="curve"/>
      <point x="52.5789" y="597.72" type="line"/>
      <point x="118.564" y="599.806"/>
      <point x="172.915" y="669.693"/>
      <point x="140.106" y="748.368" type="curve" smooth="yes"/>
      <point x="123.028" y="789.193"/>
      <point x="73.8704" y="787.114"/>
      <point x="61.0037" y="757.886" type="curve" smooth="yes"/>
    </contour>
  </outline>
</glyph>
